<svg xmlns="http://www.w3.org/2000/svg" width="24" height="24" viewBox="0 0 24 24" fill="none">
  <g clip-path="url(#clip0_6120_25)">
    <path d="M6.5 1.91699C4.70495 1.99498 3.01371 2.78025 1.79579 4.10122C0.577864 5.4222 -0.0677465 7.17152 4.06709e-06 8.96699C4.06709e-06 13.514 4.786 18.48 8.8 21.847C9.69622 22.6001 10.8294 23.013 12 23.013C13.1706 23.013 14.3038 22.6001 15.2 21.847C19.214 18.48 24 13.514 24 8.96699C24.0678 7.17152 23.4221 5.4222 22.2042 4.10122C20.9863 2.78025 19.2951 1.99498 17.5 1.91699M6.5 1.91699L6.49767 2.06697C6.49915 2.067 6.50062 2.06702 6.50209 2.06704M6.5 1.91699L6.50652 2.06685C6.50504 2.06691 6.50357 2.06698 6.50209 2.06704M6.5 1.91699C7.62605 1.93451 8.72754 2.24885 9.69324 2.82826C10.6089 3.37768 11.3718 4.14698 11.9133 5.06523C11.8983 5.09149 11.8834 5.11787 11.8688 5.14435L12 5.21699L12.1312 5.14435C12.1166 5.11787 12.1017 5.09149 12.0867 5.06523C12.6282 4.14698 13.3911 3.37768 14.3068 2.82826C15.2725 2.24885 16.374 1.93451 17.5 1.91699M6.50209 2.06704C4.74828 2.14441 3.09612 2.91215 1.90607 4.2029C0.71501 5.49474 0.0836414 7.20547 0.149897 8.96134L0.150111 8.96699H0.150004C0.150004 11.1911 1.32261 13.5368 3.0141 15.7586C4.7029 17.977 6.89361 20.0521 8.8964 21.7321L8.89651 21.7322C9.7657 22.4626 10.8647 22.863 12 22.863C13.1353 22.863 14.2343 22.4626 15.1035 21.7322L15.1036 21.7321C17.1064 20.0521 19.2971 17.977 20.9859 15.7586C22.6774 13.5368 23.85 11.1911 23.85 8.96699V8.96133L23.8501 8.96134C23.9164 7.20547 23.285 5.49474 22.0939 4.2029C20.9039 2.91215 19.2517 2.14441 17.4979 2.06704M6.50209 2.06704C7.60021 2.0849 8.67427 2.39181 9.61607 2.95689C10.5591 3.52272 11.3362 4.32739 11.8688 5.28963L12 5.52675L12.1312 5.28963C12.6638 4.32739 13.4409 3.52272 14.3839 2.95689C15.3257 2.39181 16.3998 2.0849 17.4979 2.06704M17.4979 2.06704C17.4994 2.06702 17.5009 2.067 17.5023 2.06697L17.5" fill="none" stroke="#292D32" stroke-width="1.5"/>
  </g>
  <defs>
    <clipPath id="clip0_6120_25">
      <rect width="24" height="24" fill="white"/>
    </clipPath>
  </defs>
</svg>
