<?xml version="1.0" standalone="no"?>
<!DOCTYPE svg PUBLIC "-//W3C//DTD SVG 20010904//EN"
 "http://www.w3.org/TR/2001/REC-SVG-20010904/DTD/svg10.dtd">
<svg version="1.0" xmlns="http://www.w3.org/2000/svg"
 width="700.000000pt" height="700.000000pt" viewBox="0 0 700.000000 700.000000"
 preserveAspectRatio="xMidYMid meet">
<metadata>
Created by potrace 1.14, written by Peter Selinger 2001-2017
</metadata>
<g transform="translate(0.000000,700.000000) scale(0.100000,-0.100000)"
fill="#000000" stroke="none">
<path d="M3220 6920 c-1361 -118 -2534 -1041 -2973 -2340 -68 -200 -111 -383
-149 -631 -29 -195 -32 -689 -5 -869 91 -597 258 -1039 567 -1500 231 -345
571 -685 923 -924 322 -218 689 -383 1074 -481 120 -31 186 -44 458 -86 52 -9
187 -13 385 -13 262 0 326 3 454 22 645 96 1177 319 1660 696 129 102 157 127
311 281 154 154 179 182 281 311 377 483 600 1015 696 1660 19 128 22 192 22
454 0 198 -4 333 -13 385 -42 272 -55 338 -86 458 -158 618 -469 1155 -926
1603 -222 217 -411 362 -669 514 -393 231 -788 367 -1280 441 -152 23 -564 34
-730 19z m675 -365 c687 -96 1275 -382 1759 -854 438 -428 736 -971 860 -1571
50 -238 59 -338 59 -630 1 -292 -9 -389 -59 -630 -140 -675 -505 -1286 -1029
-1724 -466 -390 -966 -610 -1590 -702 -167 -24 -620 -25 -785 -1 -303 45 -532
106 -785 209 -940 385 -1647 1241 -1844 2233 -46 234 -55 330 -55 615 0 292
10 390 60 630 184 885 750 1645 1549 2079 383 209 808 331 1270 365 106 8 485
-4 590 -19z"/>
<path d="M3180 4292 c-41 -31 -156 -120 -256 -197 -381 -294 -499 -384 -508
-385 -4 0 -23 35 -41 80 -92 227 -264 383 -501 450 -63 18 -101 20 -436 20
l-368 0 0 -751 0 -750 388 4 c317 3 395 6 432 19 223 77 367 194 454 368 25
50 48 106 52 125 3 20 9 37 13 39 4 3 106 -72 227 -165 120 -94 278 -215 349
-269 72 -55 162 -125 202 -156 l72 -56 141 109 c78 59 244 187 369 283 124 96
252 194 284 218 l57 43 0 -281 0 -280 480 0 480 0 0 155 0 155 -315 0 -315 0
0 595 0 595 -175 0 -175 0 0 -278 0 -278 -32 -30 c-18 -17 -55 -48 -83 -69
-27 -22 -52 -42 -55 -45 -4 -5 -183 -150 -290 -235 -192 -154 -290 -233 -315
-257 l-31 -28 -69 61 c-39 34 -78 69 -88 78 -17 16 -9 24 166 159 172 132 427
333 472 370 11 10 48 39 83 66 34 27 62 52 62 55 0 3 -26 26 -57 51 -31 25
-82 66 -112 92 -31 26 -60 48 -64 48 -5 0 -84 -59 -175 -130 -191 -149 -215
-168 -293 -230 -190 -150 -230 -180 -281 -219 -32 -24 -62 -41 -67 -39 -14 5
-160 132 -160 140 -1 3 43 40 97 80 255 194 449 341 570 432 l133 101 -28 23
c-54 46 -69 58 -139 115 -39 31 -73 57 -75 57 -2 0 -38 -26 -79 -58z m-1406
-352 c188 -59 319 -261 303 -470 -11 -131 -54 -227 -144 -314 -94 -93 -170
-116 -380 -116 l-153 0 0 460 0 460 154 0 c126 0 166 -4 220 -20z"/>
<path d="M5200 3510 l0 -750 485 0 486 0 -3 153 -3 152 -307 3 -308 2 0 595 0
595 -175 0 -175 0 0 -750z"/>
</g>
</svg>
